
<svg aria-hidden="true" style="position: absolute; width: 0; height: 0; overflow: hidden;" version="1.1" xmlns="http://www.w3.org/2000/svg" xmlns:xlink="http://www.w3.org/1999/xlink">
<defs>
<symbol id="arrow-big" viewBox="0 0 93 32">
<title>arrow-big</title>
<path fill="#fff" style="fill: var(--color1, #fff); stroke: var(--color1, #fff)" stroke="#fff" stroke-linejoin="miter" stroke-linecap="butt" stroke-miterlimit="10" stroke-width="2.4078" d="M0 16.301h92.629M75.871 31.109l16.325-14.784M76.208 0.867l15.988 15.458"></path>
<path fill="#fff" style="fill: var(--color1, #fff); stroke: var(--color1, #fff)" stroke="#fff" stroke-linejoin="miter" stroke-linecap="butt" stroke-miterlimit="10" stroke-width="1.2039" d="M92.629 16.301c0 0.838-0.916 1.517-2.047 1.517s-2.047-0.679-2.047-1.517c0-0.838 0.916-1.517 2.047-1.517s2.047 0.679 2.047 1.517z"></path>
</symbol>
<symbol id="arrow-down" viewBox="0 0 32 32">
<title>arrow-down</title>
<path d="M31.797 14.118c-0.271-0.271-0.712-0.271-0.984 0l-14.812 14.812-14.814-14.812c-0.271-0.271-0.712-0.271-0.984 0s-0.271 0.712 0 0.984l15.305 15.305c0.136 0.135 0.314 0.203 0.493 0.203s0.356-0.068 0.491-0.203l15.305-15.305c0.271-0.271 0.271-0.712-0-0.984z"></path>
<path d="M31.797 1.594c-0.271-0.271-0.712-0.271-0.984 0l-14.812 14.814-14.814-14.812c-0.271-0.271-0.712-0.271-0.984 0s-0.271 0.712 0 0.984l15.305 15.305c0.136 0.135 0.314 0.203 0.493 0.203s0.356-0.068 0.491-0.205l15.305-15.305c0.271-0.271 0.271-0.712 0-0.984z"></path>
</symbol>
<symbol id="arrow-small" viewBox="0 0 46 32">
<title>arrow-small</title>
<path  d="M46.277 14.769l-14.794-14.277c-0.296-0.306-0.71-0.497-1.169-0.497s-0.873 0.19-1.169 0.496l-0 0c-0.296 0.287-0.48 0.688-0.48 1.132s0.184 0.846 0.48 1.132l0 0 11.938 11.618h-39.434c-0.897 0-1.625 0.727-1.625 1.625s0.727 1.625 1.625 1.625v0h39.385l-11.938 11.594c-0.289 0.295-0.467 0.699-0.467 1.145 0 0.904 0.733 1.636 1.636 1.636 0.458 0 0.872-0.188 1.169-0.491l0-0 14.843-14.277c0.38-0.281 0.624-0.727 0.624-1.231s-0.244-0.95-0.62-1.228l-0.004-0.003z"></path>
</symbol>
<symbol id="anchor" viewBox="0 0 32 32">
<title>anchor</title>
<path fill="#fff" style="fill: var(--color1, #fff)" d="M16 28c0.552 0 1-0.448 1-1v0-19.95l7.276 7.639c0.197 0.207 0.46 0.31 0.724 0.31 0 0 0 0 0 0 0.552 0 1-0.448 1-1 0-0.268-0.105-0.511-0.277-0.69l0 0-8.309-8.724c-0.378-0.378-0.88-0.586-1.415-0.586s-1.037 0.209-1.431 0.603l-8.293 8.707c-0.171 0.179-0.276 0.422-0.276 0.69 0 0.552 0.448 1 1 1 0.285 0 0.542-0.119 0.724-0.31l0-0 7.276-7.671v19.981c0 0.552 0.448 1 1 1v0z"></path>
</symbol>
<symbol id="facebook" viewBox="0 0 32 32">
<title>facebook</title>
<path fill="#3b5998" style="fill: var(--color3, #3b5998)" d="M32 16c0 8.837-7.163 16-16 16s-16-7.163-16-16c0-8.837 7.163-16 16-16s16 7.163 16 16z"></path>
<path fill="#fff" style="fill: var(--color1, #fff)" d="M20.022 16.626h-2.855v10.459h-4.326v-10.459h-2.057v-3.676h2.057v-2.379c0-1.701 0.808-4.365 4.364-4.365l3.204 0.013v3.568h-2.325c-0.381 0-0.918 0.191-0.918 1.002v2.163h3.233l-0.378 3.672z"></path>
</symbol>
<symbol id="support" viewBox="0 0 32 32">
<title>support</title>
<path d="M28.771 21.293l2.189-2.189c1.386-1.386 1.386-3.641 0-5.027-0.402-0.403-0.9-0.709-1.457-0.882l-0.025-0.007c0.446-0.606 0.688-1.336 0.688-2.103 0-0.95-0.37-1.842-1.041-2.514s-1.564-1.041-2.514-1.041c-0.040 0-0.080 0.001-0.119 0.002 0.031-0.949-0.315-1.908-1.038-2.632s-1.684-1.069-2.631-1.037c0.001-0.040 0.002-0.080 0.002-0.119 0-0.95-0.37-1.842-1.041-2.514-1.386-1.386-3.641-1.386-5.027 0l-0.757 0.757-0.757-0.757c-0.671-0.672-1.564-1.042-2.514-1.042s-1.842 0.37-2.513 1.041c-0.723 0.723-1.068 1.683-1.037 2.633-0.035-0.002-0.077-0.003-0.119-0.003h-0.001c-0.949 0-1.842 0.37-2.514 1.041-0.723 0.723-1.068 1.683-1.036 2.633-0.040-0.001-0.080-0.003-0.121-0.003-0.949 0-1.842 0.37-2.513 1.041s-1.042 1.564-1.042 2.514c0 0.767 0.241 1.496 0.688 2.102-0.554 0.167-1.061 0.469-1.482 0.89-1.383 1.383-1.386 3.631-0.009 5.018 0.003 0.004 0.007 0.007 0.010 0.011l2.192 2.192c0.003 0.003 0.006 0.006 0.009 0.010 0.127 0.127 0.264 0.245 0.41 0.352l0.010 0.007-0.648 0.648c-0.631 0.631-0.952 1.49-0.904 2.419 0.045 0.892 0.429 1.742 1.081 2.394l3.708 3.709c0.688 0.688 1.591 1.032 2.495 1.032s1.807-0.344 2.495-1.032l1.724-1.724c0.718 0.161 1.543 0.254 2.389 0.254h0c0.801 0 1.602-0.085 2.388-0.254l1.723 1.723c0.688 0.688 1.591 1.032 2.495 1.032s1.807-0.344 2.495-1.032l3.709-3.708c1.375-1.375 1.532-3.457 0.348-4.641l-0.79-0.79 0.39-0.39c0.004-0.004 0.009-0.008 0.013-0.013zM11.573 2.585c0.309-0.309 0.72-0.479 1.157-0.479s0.848 0.17 1.157 0.479l2.936 2.936c0.638 0.638 0.638 1.676 0 2.314-0.309 0.309-0.72 0.479-1.157 0.479h-0c-0.437-0-0.848-0.17-1.157-0.479l-2.936-2.936c-0.002-0.002-0.005-0.005-0.007-0.007-0.631-0.639-0.629-1.672 0.007-2.308zM7.898 8.566c-0.634-0.638-0.632-1.673 0.004-2.31 0.309-0.309 0.72-0.479 1.158-0.479s0.847 0.17 1.156 0.479c0 0 0.001 0 0.001 0 0.001 0.001 0.002 0.002 0.003 0.003v0l2.933 2.933c0.002 0.002 0.004 0.004 0.006 0.006l0.729 0.729c0.309 0.309 0.479 0.72 0.479 1.157s-0.17 0.848-0.479 1.157c-0.309 0.309-0.72 0.479-1.157 0.479s-0.848-0.17-1.157-0.479c-0.004-0.004-0.008-0.007-0.011-0.011l-0-0-0.719-0.72c-0.001-0.001-0.002-0.002-0.003-0.003l-2.941-2.941zM4.232 9.927c0.309-0.309 0.72-0.479 1.157-0.479s0.848 0.17 1.157 0.479l2.94 2.94c0.635 0.638 0.633 1.674-0.003 2.311-0.309 0.309-0.72 0.479-1.157 0.479s-0.848-0.17-1.157-0.479c-0.004-0.004-0.008-0.008-0.011-0.011l-2.925-2.925c-0.309-0.309-0.479-0.72-0.479-1.157s0.17-0.848 0.48-1.157zM2.406 17.756c-0.004-0.004-0.007-0.008-0.011-0.011-0.637-0.638-0.636-1.675 0.001-2.313 0.309-0.309 0.72-0.479 1.157-0.479s0.848 0.17 1.157 0.479l2.202 2.202c0.638 0.638 0.638 1.676 0 2.314-0.309 0.309-0.72 0.479-1.157 0.479h-0c-0.084-0-0.166-0.006-0.247-0.018l0.009 0.001c-0.006-0.001-0.012-0.002-0.018-0.003-0.352-0.056-0.659-0.218-0.895-0.452l0 0c-0.002-0.003-0.005-0.005-0.008-0.008zM13.559 27.127c-0.008-0.002-0.016-0.003-0.024-0.005-0.012-0.003-0.032-0.008-0.052-0.012l-0.006-0.001c-0.014-0.002-0.028-0.004-0.043-0.006-0.011-0.002-0.027-0.003-0.044-0.005l-0.004-0c-0.015-0.001-0.032-0.002-0.050-0.002h-0c-0.014-0-0.027-0.001-0.041-0-0.018 0-0.036 0.001-0.054 0.003-0.013 0.001-0.026 0.002-0.039 0.003-0.018 0.002-0.035 0.005-0.052 0.008-0.019 0.003-0.032 0.006-0.046 0.009l0.005-0.001c-0.016 0.003-0.031 0.007-0.047 0.012s-0.030 0.008-0.045 0.013c-0.014 0.005-0.027 0.009-0.041 0.014-0.016 0.006-0.032 0.012-0.047 0.019-0.034 0.015-0.062 0.029-0.088 0.044l0.005-0.003c-0.012 0.007-0.025 0.014-0.037 0.022-0.014 0.009-0.028 0.017-0.041 0.026s-0.027 0.020-0.040 0.030c-0.011 0.008-0.022 0.017-0.033 0.025-0.016 0.013-0.030 0.027-0.045 0.041-0.006 0.005-0.012 0.010-0.017 0.016l-2.102 2.102c-0.628 0.628-1.649 0.628-2.276 0l-3.708-3.708c-0.315-0.315-0.5-0.718-0.521-1.135-0.019-0.38 0.103-0.723 0.345-0.964l1.325-1.325c0.020 0 0.041 0.002 0.061 0.002h0c0.949 0 1.842-0.37 2.513-1.041 1.027-1.028 1.293-2.533 0.796-3.808 0.667-0.141 1.28-0.47 1.774-0.963 0.527-0.526 0.888-1.217 1.001-1.988l0.002-0.019c0.266 0.071 0.572 0.112 0.887 0.112 0 0 0.001 0 0.001 0h0c0.949 0 1.842-0.37 2.513-1.041s1.041-1.564 1.041-2.514c0-0.303-0.038-0.6-0.111-0.886 0.757-0.107 1.456-0.455 2.006-1.005 1.386-1.386 1.386-3.641 0-5.027l-0.823-0.823 0.757-0.757c0.638-0.638 1.676-0.638 2.314-0 0.309 0.309 0.479 0.72 0.479 1.157s-0.17 0.848-0.479 1.157c-0.174 0.173-0.281 0.413-0.281 0.677 0 0 0 0.001 0 0.001v-0c0 0.245 0.093 0.491 0.281 0.678 0.375 0.375 0.982 0.375 1.357 0 0.638-0.638 1.676-0.638 2.314 0s0.638 1.676-0 2.314c-0.174 0.173-0.281 0.413-0.281 0.677 0 0 0 0.001 0 0.001v-0c0 0 0 0.001 0 0.002 0 0.264 0.107 0.504 0.281 0.677l0 0c0.375 0.375 0.982 0.375 1.357 0 0.309-0.309 0.72-0.479 1.157-0.479s0.848 0.17 1.157 0.479c0.309 0.309 0.48 0.72 0.48 1.157 0 0.431-0.166 0.837-0.467 1.144-0.004 0.004-0.009 0.009-0.013 0.013l-1.376 1.376c-0.343 0.342-0.376 0.887-0.078 1.269l0.049 0.063c0.297 0.381 0.832 0.481 1.247 0.234 0.643-0.383 1.463-0.28 1.993 0.249 0.638 0.638 0.638 1.676 0 2.314l-6.941 6.941c-2.371 2.371-5.86 3.306-9.104 2.44zM27.802 23.842c0.421 0.421 0.258 1.322-0.348 1.928l-3.709 3.708c-0.628 0.628-1.649 0.628-2.276 0l-1.020-1.020c1.387-0.601 2.572-1.414 3.571-2.413l2.992-2.992z"></path>
</symbol>
<symbol id="aim" viewBox="0 0 32 32">
<title>aim</title>
<path fill="#fcae26" style="fill: var(--color5, #fcae26)" d="M16 10.571c-2.999 0-5.429 2.431-5.429 5.429s2.431 5.429 5.429 5.429c2.999 0 5.429-2.431 5.429-5.429v0c0-2.999-2.431-5.429-5.429-5.429v0zM16 19.104c-1.714 0-3.104-1.39-3.104-3.104s1.39-3.104 3.104-3.104c1.714 0 3.104 1.39 3.104 3.104v0c0 1.714-1.39 3.104-3.104 3.104v0z"></path>
<path fill="#fcae26" style="fill: var(--color5, #fcae26)" d="M16 0c-8.837 0-16 7.163-16 16s7.163 16 16 16c8.837 0 16-7.163 16-16v0c0-8.837-7.163-16-16-16v0zM24.533 16.779h-1.6c-0.37 3.239-2.915 5.785-6.123 6.152l-0.032 0.003v1.6h-1.557v-1.6c-3.239-0.37-5.785-2.915-6.152-6.123l-0.003-0.032h-1.6v-1.557h1.6c0.37-3.239 2.915-5.785 6.123-6.152l0.032-0.003v-1.6h1.557v1.6c3.239 0.37 5.785 2.915 6.152 6.123l0.003 0.032h1.6z"></path>
</symbol>
<symbol id="circle" viewBox="0 0 32 32">
<title>circle</title>
<path fill="#fcae26" style="fill: var(--color5, #fcae26)" d="M16 0c-8.837 0-16 7.163-16 16s7.163 16 16 16c8.837 0 16-7.163 16-16v0c0-8.837-7.163-16-16-16v0zM24.064 15.029h-6.197c-0.235-0.437-0.605-0.775-1.053-0.965l-0.014-0.005v-6.144c3.795 0.389 6.795 3.339 7.26 7.075l0.004 0.040zM7.872 16c0.003-4.213 3.21-7.675 7.316-8.083l0.034-0.003v6.123c-0.769 0.334-1.297 1.087-1.297 1.963s0.528 1.629 1.283 1.957l0.014 0.005v6.123c-4.139-0.41-7.346-3.873-7.349-8.085v-0zM16.832 24.085v-6.144c0.475-0.218 0.848-0.591 1.061-1.053l0.005-0.013h6.187c-0.429 3.812-3.436 6.804-7.218 7.208l-0.036 0.003z"></path>
</symbol>
<symbol id="grid" viewBox="0 0 32 32">
<title>grid</title>
<path fill="#fcae26" style="fill: var(--color5, #fcae26)" d="M16 0c-8.837 0-16 7.163-16 16s7.163 16 16 16c8.837 0 16-7.163 16-16v0c0-8.837-7.163-16-16-16v0zM14.72 23.467h-6.187v-6.187h6.187zM22.453 17.28v6.187h-6.187v-6.187h2.827l-4.373-4.373v2.827h-6.187v-6.133h6.187v3.307l4.373-4.373 4.373 4.373-4.373 4.373z"></path>
</symbol>
<symbol id="internet" viewBox="0 0 32 32">
<title>internet</title>
<path d="M16 0c-8.836 0-16 7.164-16 16s7.164 16 16 16 16-7.164 16-16c-0.010-8.832-7.168-15.99-16-16zM29.838 21.605l-4.55 0.785c0.496-1.747 0.799-3.758 0.837-5.835l0-0.022h4.795c-0.066 1.843-0.457 3.577-1.119 5.17l0.036-0.098zM1.080 16.533h4.795c0.038 2.099 0.342 4.111 0.877 6.025l-0.040-0.168-4.55-0.785c-0.625-1.495-1.017-3.229-1.082-5.046l-0.001-0.026zM2.162 10.395l4.55-0.785c-0.496 1.746-0.799 3.758-0.837 5.835l-0 0.022h-4.795c0.066-1.843 0.457-3.577 1.119-5.17l-0.036 0.098zM16.533 8.563c2.039 0.027 4.014 0.216 5.938 0.554l-0.221-0.032 1.883 0.325c0.551 1.805 0.886 3.884 0.925 6.036l0 0.021h-8.525zM22.433 8.034c-1.758-0.316-3.796-0.511-5.874-0.537l-0.025-0v-6.4c3.058 0.294 5.714 3.093 7.219 7.167zM15.467 7.497c-2.103 0.027-4.141 0.221-6.126 0.571l0.227-0.033-1.32 0.228c1.505-4.075 4.161-6.876 7.219-7.168zM9.75 9.085c1.703-0.307 3.678-0.495 5.692-0.522l0.025-0v6.903h-8.525c0.039-2.172 0.374-4.251 0.967-6.219l-0.042 0.162zM6.941 16.533h8.525v6.903c-2.039-0.027-4.014-0.216-5.938-0.554l0.221 0.032-1.883-0.325c-0.551-1.805-0.886-3.884-0.925-6.036l-0-0.021zM9.567 23.966c1.757 0.316 3.794 0.512 5.873 0.54l0.027 0v6.4c-3.058-0.294-5.714-3.094-7.219-7.168zM16.533 24.506c2.105-0.029 4.142-0.224 6.127-0.574l-0.228 0.033 1.32-0.228c-1.505 4.075-4.161 6.876-7.219 7.168zM22.25 22.915c-1.703 0.307-3.678 0.495-5.692 0.522l-0.025 0v-6.903h8.525c-0.039 2.172-0.374 4.251-0.967 6.219l0.042-0.162zM26.125 15.467c-0.038-2.099-0.342-4.111-0.877-6.025l0.040 0.168 4.55 0.785c0.625 1.495 1.017 3.229 1.082 5.046l0.001 0.026zM29.298 9.219l-4.362-0.753c-0.827-2.645-2.297-4.889-4.23-6.628l-0.013-0.012c3.772 1.284 6.798 3.917 8.566 7.31l0.039 0.083zM11.307 1.826c-1.947 1.751-3.417 3.995-4.215 6.536l-0.028 0.104-4.362 0.753c1.807-3.476 4.833-6.109 8.499-7.362l0.106-0.031zM2.702 22.781l4.362 0.753c0.827 2.645 2.297 4.889 4.23 6.628l0.013 0.012c-3.772-1.284-6.798-3.917-8.566-7.31l-0.039-0.083zM20.693 30.173c1.947-1.751 3.416-3.995 4.215-6.536l0.028-0.104 4.362-0.753c-1.807 3.476-4.833 6.108-8.499 7.361l-0.106 0.031z"></path>
</symbol>
<symbol id="lamp" viewBox="0 0 32 32">
<title>lamp</title>
<path d="M30.847 0.292c-0.198-0.282-0.587-0.351-0.87-0.153s-0.352 0.588-0.154 0.87c0.114 0.162 0.301 0.267 0.512 0.267 0.134 0 0.259-0.042 0.36-0.114l-0.002 0.001c0.282-0.198 0.351-0.588 0.153-0.871zM30.693 20.151c-0.1-0.071-0.224-0.113-0.359-0.113-0.211 0-0.398 0.105-0.511 0.265l-0.001 0.002c-0.198 0.282-0.129 0.672 0.154 0.87s0.672 0.129 0.87-0.153c0.198-0.283 0.129-0.672-0.153-0.871zM2.023 0.139c-0.282-0.198-0.672-0.129-0.87 0.153s-0.129 0.672 0.153 0.871c0.1 0.071 0.224 0.113 0.359 0.113 0.211 0 0.398-0.105 0.511-0.265l0.001-0.002c0.198-0.282 0.129-0.672-0.154-0.87zM2.177 20.305c-0.114-0.162-0.301-0.267-0.512-0.267-0.134 0-0.259 0.042-0.361 0.114l0.002-0.001c-0.282 0.198-0.351 0.587-0.153 0.871s0.588 0.351 0.87 0.153c0.283-0.198 0.352-0.587 0.154-0.87zM23.085 2.708c-1.1-0.985-2.365-1.717-3.76-2.176-1.457-0.48-2.983-0.636-4.535-0.464-2.263 0.251-4.438 1.273-6.123 2.879-1.688 1.609-2.81 3.732-3.16 5.98-0.31 1.99-0.069 4 0.697 5.814 0.731 1.732 1.917 3.247 3.43 4.381 0.464 0.348 0.741 0.903 0.741 1.483v5.718c0 0.86 0.566 1.591 1.346 1.838 0.117 0.966 0.549 1.859 1.248 2.559 0.827 0.826 1.925 1.281 3.093 1.281 2.248 0 4.104-1.704 4.347-3.888 0.712-0.287 1.215-0.99 1.215-1.79v-5.718c0-0.581 0.275-1.134 0.736-1.478 1.294-0.969 2.366-2.238 3.101-3.67 0.772-1.504 1.163-3.129 1.163-4.83-0-3.017-1.29-5.903-3.54-7.917zM16.063 30.75c-0.834 0-1.619-0.325-2.21-0.915-0.44-0.44-0.732-0.989-0.853-1.585h6.125c-0.29 1.425-1.553 2.5-3.062 2.5zM20.375 26.322c0 0.349-0.271 0.645-0.617 0.675-0.018 0.002-0.039 0.003-0.060 0.003-0 0-0.001 0-0.001 0h-7.394c-0.374 0-0.678-0.304-0.678-0.678v-0.759h8.75v0.759zM20.375 24.313h-8.75v-1.438h8.75v1.438zM16 13.534c0 0 0 0 0.001 0 0.683 0 1.329-0.165 1.898-0.456l-0.023 0.011v8.537h-3.75v-8.537c0.546 0.281 1.191 0.445 1.874 0.445 0 0 0 0 0.001 0h-0zM14.276 11.721l1.724-3.448 1.724 3.448c-1.021 0.752-2.426 0.752-3.448 0zM21.612 18.125c-0.774 0.579-1.237 1.506-1.237 2.479v1.021h-1.25v-9.749c0-0.023-0.002-0.045-0.004-0.068-0.001-0.006-0.002-0.013-0.003-0.019-0.003-0.020-0.006-0.036-0.009-0.052l0.001 0.004c-0.002-0.007-0.003-0.014-0.005-0.021-0.005-0.020-0.010-0.036-0.015-0.051l0.001 0.004c-0.002-0.006-0.004-0.012-0.006-0.018-0.008-0.021-0.015-0.037-0.023-0.053l0.002 0.004c-0.002-0.003-0.003-0.007-0.004-0.010l-2.5-5c-0.105-0.206-0.316-0.345-0.559-0.345s-0.454 0.139-0.557 0.342l-0.002 0.004-2.5 5c-0.002 0.003-0.003 0.007-0.004 0.010-0.008 0.016-0.015 0.033-0.021 0.050-0.002 0.006-0.004 0.012-0.006 0.018-0.004 0.011-0.009 0.027-0.013 0.042l-0.001 0.004c-0.002 0.007-0.004 0.014-0.005 0.021-0.003 0.012-0.006 0.028-0.008 0.045l-0 0.003c-0.001 0.006-0.002 0.013-0.003 0.019-0.002 0.023-0.004 0.045-0.004 0.068v9.749h-1.25v-1.021c0-0.972-0.464-1.9-1.241-2.483-2.785-2.087-4.18-5.536-3.641-9.002 0.633-4.069 4.075-7.353 8.185-7.808 2.71-0.3 5.312 0.527 7.324 2.329 1.985 1.777 3.123 4.324 3.123 6.986-0 2.976-1.372 5.709-3.763 7.499z"></path>
<path d="M21.418 4.57c-0.257-0.23-0.652-0.209-0.883 0.049s-0.209 0.652 0.049 0.883c1.456 1.304 2.291 3.172 2.291 5.124 0 0.345 0.28 0.625 0.625 0.625s0.625-0.28 0.625-0.625c0-2.307-0.987-4.514-2.707-6.055zM3.5 10h-2.875c-0.345 0-0.625 0.28-0.625 0.625s0.28 0.625 0.625 0.625h2.875c0.345 0 0.625-0.28 0.625-0.625s-0.28-0.625-0.625-0.625zM31.375 10h-2.875c-0.345 0-0.625 0.28-0.625 0.625s0.28 0.625 0.625 0.625h2.875c0.345 0 0.625-0.28 0.625-0.625s-0.28-0.625-0.625-0.625zM6.273 17.437c-0.198-0.283-0.588-0.352-0.87-0.154l-2.048 1.434c-0.283 0.198-0.352 0.588-0.154 0.87 0.114 0.162 0.301 0.267 0.512 0.267 0 0 0.001 0 0.001 0h-0c0.124 0 0.249-0.037 0.358-0.113l2.048-1.434c0.283-0.198 0.352-0.588 0.154-0.87zM28.799 1.663c-0.198-0.283-0.588-0.352-0.87-0.154l-2.048 1.434c-0.283 0.198-0.352 0.588-0.154 0.87 0.114 0.162 0.301 0.267 0.512 0.267 0 0 0.001 0 0.001 0h-0c0.124 0 0.249-0.037 0.358-0.113l2.048-1.434c0.283-0.198 0.352-0.588 0.154-0.87zM6.119 2.944l-2.048-1.434c-0.283-0.198-0.672-0.129-0.87 0.154s-0.129 0.672 0.154 0.87l2.048 1.434c0.1 0.071 0.224 0.113 0.358 0.113 0 0 0 0 0 0v0c0 0 0.001 0 0.001 0 0.211 0 0.397-0.105 0.51-0.265l0.001-0.002c0.198-0.283 0.129-0.672-0.154-0.87zM28.646 18.717l-2.048-1.434c-0.283-0.198-0.672-0.129-0.87 0.154s-0.129 0.672 0.154 0.87l2.048 1.434c0.1 0.071 0.224 0.113 0.358 0.113 0 0 0 0 0 0v0c0 0 0.001 0 0.001 0 0.211 0 0.397-0.105 0.51-0.265l0.001-0.002c0.198-0.283 0.129-0.673-0.154-0.87z"></path>
</symbol>
<symbol id="money" viewBox="0 0 32 32">
<title>money</title>
<path d="M21.372 20.522c-0.758 0-1.375-0.534-1.375-1.19s0.617-1.19 1.375-1.19 1.375 0.534 1.375 1.19c0 0.345 0.28 0.625 0.625 0.625s0.625-0.28 0.625-0.625c0-1.145-0.853-2.108-2-2.37v-0.325c0-0.345-0.28-0.625-0.625-0.625s-0.625 0.28-0.625 0.625v0.325c-1.147 0.261-2 1.224-2 2.37 0 1.345 1.178 2.44 2.625 2.44 0.758 0 1.375 0.534 1.375 1.19s-0.617 1.19-1.375 1.19-1.375-0.534-1.375-1.19c0-0.345-0.28-0.625-0.625-0.625s-0.625 0.28-0.625 0.625c0 1.145 0.853 2.108 2 2.37v0.27c0 0.345 0.28 0.625 0.625 0.625s0.625-0.28 0.625-0.625v-0.27c1.147-0.261 2-1.224 2-2.37 0-1.346-1.178-2.44-2.625-2.44zM28.218 16.805c-0.821-1.267-1.947-2.271-3.278-2.923l-0.048-0.021c-0.311-0.15-0.685-0.019-0.834 0.293s-0.019 0.684 0.293 0.834c2.369 1.139 3.9 3.573 3.9 6.2 0 1.124-0.277 2.239-0.801 3.224-0.162 0.305-0.047 0.683 0.258 0.845 0.085 0.046 0.186 0.073 0.294 0.073 0.238 0 0.444-0.133 0.55-0.328l0.002-0.003c0.62-1.165 0.948-2.483 0.948-3.812 0-1.56-0.443-3.076-1.282-4.383zM22.355 13.063l-0.042-0c-0.345 0-0.625 0.28-0.625 0.625s0.28 0.625 0.625 0.625l0.039 0c0.344 0 0.623-0.278 0.625-0.622s-0.277-0.626-0.622-0.628zM18.4 27.388c-2.369-1.139-3.9-3.573-3.9-6.2 0-1.124 0.277-2.239 0.801-3.224 0.162-0.305 0.047-0.683-0.258-0.845s-0.683-0.047-0.845 0.258c-0.62 1.165-0.948 2.483-0.948 3.812 0 1.56 0.443 3.075 1.282 4.383 0.821 1.267 1.948 2.271 3.278 2.923l0.048 0.021c0.076 0.036 0.166 0.057 0.26 0.057 0.345 0 0.625-0.28 0.625-0.625 0-0.243-0.138-0.453-0.34-0.557l-0.004-0.002zM20.438 28.063l-0.036-0c-0.347-0.001-0.626 0.277-0.628 0.622s0.277 0.626 0.622 0.628l0.042 0c0.345 0 0.625-0.28 0.625-0.625s-0.28-0.625-0.625-0.625z"></path>
<path d="M24.213 10.948c-0.083-0.196-0.176-0.364-0.284-0.52l0.006 0.010h1.627c1.585 0 2.875-1.29 2.875-2.875s-1.29-2.875-2.875-2.875h-5.005c0.316-0.453 0.505-1.016 0.505-1.622 0-0.001 0-0.002 0-0.003v0c0-1.585-1.29-2.875-2.875-2.875h-15.312c-1.585 0-2.875 1.29-2.875 2.875s1.29 2.875 2.875 2.875h5.005c-0.318 0.463-0.505 1.022-0.505 1.625s0.187 1.162 0.505 1.625h-1.63c-1.585 0-2.875 1.29-2.875 2.875 0 0.91 0.426 1.723 1.088 2.25-0.663 0.527-1.088 1.34-1.088 2.25s0.426 1.723 1.088 2.25c-0.663 0.527-1.088 1.34-1.088 2.25s0.426 1.723 1.088 2.25c-0.663 0.527-1.088 1.34-1.088 2.25 0 1.585 1.29 2.875 2.875 2.875h7.366c1.94 2.075 4.701 3.375 7.759 3.375 5.859 0 10.625-4.766 10.625-10.625 0-4.876-3.302-8.995-7.787-10.24zM25.562 5.938c0.896 0 1.625 0.729 1.625 1.625s-0.729 1.625-1.625 1.625h-15.312c-0.896 0-1.625-0.729-1.625-1.625s0.729-1.625 1.625-1.625h15.312zM2.875 4.688c-0.896 0-1.625-0.729-1.625-1.625s0.729-1.625 1.625-1.625h15.312c0.896 0 1.625 0.729 1.625 1.625s-0.729 1.625-1.625 1.625h-15.312zM6.25 10.437h15.312c0.252 0 0.493 0.059 0.709 0.163-0.296-0.025-0.595-0.038-0.896-0.038-2.934 0-5.594 1.196-7.519 3.125h-7.606c-0.896 0-1.625-0.729-1.625-1.625s0.729-1.625 1.625-1.625zM6.25 14.937h6.538c-0.71 0.972-1.258 2.068-1.606 3.25h-4.932c-0.896 0-1.625-0.729-1.625-1.625s0.729-1.625 1.625-1.625zM6.25 19.437h4.645c-0.092 0.526-0.145 1.132-0.145 1.75v0c0 0.509 0.037 1.010 0.106 1.5h-4.606c-0.896 0-1.625-0.729-1.625-1.625s0.729-1.625 1.625-1.625zM6.25 27.187c-0.896 0-1.625-0.729-1.625-1.625s0.729-1.625 1.625-1.625h4.862c0.338 1.237 0.852 2.319 1.522 3.285l-0.023-0.035h-6.361zM21.375 30.563c-5.169 0-9.375-4.206-9.375-9.375s4.206-9.375 9.375-9.375 9.375 4.206 9.375 9.375-4.206 9.375-9.375 9.375z"></path>
</symbol>
<symbol id="peace" viewBox="0 0 32 32">
<title>peace</title>
<path d="M27.331 18.133c0-0.009 0-0.018 0-0.028 0-1.901-1.547-3.448-3.448-3.448h-0.941l4.127-9.953c0.727-1.756-0.11-3.777-1.866-4.505s-3.778 0.11-4.505 1.866l-2.579 6.226-2.579-6.226c-0.728-1.756-2.749-2.593-4.505-1.866s-2.593 2.749-1.866 4.505l2.24 5.409c-0.291 0.174-0.542 0.376-0.761 0.609l-0.002 0.002c-0.629-0.669-1.521-1.088-2.51-1.088-1.901 0-3.448 1.547-3.448 3.448v7.531c0 6.243 5.079 11.322 11.322 11.322s11.322-5.079 11.322-11.322zM11.752 1.932c0.801-0.332 1.723 0.050 2.055 0.851l3.445 8.317c0.145 0.343 0.478 0.579 0.866 0.579v0c0.388-0 0.721-0.236 0.864-0.573l0.002-0.006 3.445-8.317c0.332-0.801 1.254-1.183 2.055-0.852s1.183 1.254 0.851 2.055l-4.424 10.67h-4.307l0-1.573c-0-1.873-1.501-3.4-3.363-3.446l-2.341-5.651c-0.332-0.801 0.050-1.723 0.851-2.055zM13.156 14.658c-0.001 0-0.002 0-0.002 0-0.574 0-1.114 0.141-1.589 0.39l0.019-0.009v-1.955c0-0.867 0.706-1.573 1.573-1.573s1.573 0.706 1.573 1.573l-0 1.573zM6.562 13.084c0-0.867 0.706-1.573 1.573-1.573s1.573 0.706 1.573 1.573v5.021c-0 0.867-0.706 1.573-1.573 1.573s-1.573-0.706-1.573-1.573zM16.009 30.063c-5.019 0-9.136-3.935-9.429-8.882 0.452 0.235 0.987 0.372 1.553 0.372 0.001 0 0.001 0 0.002 0h-0c0.989 0 1.881-0.419 2.511-1.088 0.629 0.669 1.521 1.088 2.511 1.088h8.216c0.518 0 0.938-0.42 0.938-0.938s-0.42-0.938-0.938-0.938h-8.216c-0.867 0-1.573-0.706-1.573-1.573s0.706-1.573 1.573-1.573l8.381 0c0.002 0 0.004-0 0.006-0h2.339c0.864 0 1.567 0.7 1.573 1.562-0 0.009-0 0.017-0 0.026v2.495c0 5.209-4.238 9.447-9.447 9.447z"></path>
</symbol>
<symbol id="resume" viewBox="0 0 32 32">
<title>resume</title>
<path d="M27.996 6.477c-0.002-0.192-0.076-0.381-0.218-0.522l-5.736-5.736c-0.135-0.135-0.322-0.219-0.528-0.219-0 0-0.001 0-0.001 0h-15.933c-0.87 0-1.577 0.708-1.577 1.577v28.845c0 0.87 0.707 1.577 1.577 1.577h20.84c0.87 0 1.577-0.707 1.577-1.577v-23.938c0-0.003-0.001-0.005-0.002-0.008zM22.262 2.558l3.177 3.177h-3.098c-0.044-0-0.079-0.035-0.079-0.079v0-3.098zM26.499 30.423c0 0.043-0.035 0.079-0.079 0.079h-20.84c-0.043-0-0.079-0.035-0.079-0.079v0-28.845c0-0.043 0.035-0.079 0.079-0.079h15.184v4.158c0 0.87 0.708 1.577 1.577 1.577h4.158v23.189z"></path>
<path d="M22.631 10.251h-13.261c-0.414 0-0.749 0.335-0.749 0.749s0.335 0.749 0.749 0.749h13.261c0.414 0 0.749-0.335 0.749-0.749s-0.335-0.749-0.749-0.749zM22.631 14.772h-13.261c-0.414 0-0.749 0.335-0.749 0.749s0.335 0.749 0.749 0.749h13.261c0.414 0 0.749-0.335 0.749-0.749s-0.335-0.749-0.749-0.749zM22.631 19.293h-13.261c-0.414 0-0.749 0.335-0.749 0.749s0.335 0.749 0.749 0.749h13.261c0.414 0 0.749-0.335 0.749-0.749s-0.335-0.749-0.749-0.749zM16 23.814h-6.63c-0.414 0-0.749 0.335-0.749 0.749s0.335 0.749 0.749 0.749h6.63c0.414 0 0.749-0.335 0.749-0.749s-0.335-0.749-0.749-0.749z"></path>
</symbol>
<symbol id="target" viewBox="0 0 32 32">
<title>target</title>
<path d="M31.725 30.4l-3.768-3.769c2.613-2.932 4.043-6.671 4.043-10.631 0-3.080-0.867-6.040-2.513-8.611l2.238-2.238c0.17-0.17 0.275-0.404 0.275-0.663 0-0.076-0.009-0.151-0.026-0.222l0.001 0.006c-0.077-0.318-0.309-0.569-0.609-0.672l-0.007-0.002-2.218-0.74-0.739-2.218c-0.105-0.307-0.356-0.539-0.668-0.615l-0.006-0.001c-0.065-0.016-0.139-0.025-0.215-0.025-0.259 0-0.493 0.105-0.663 0.275v0l-2.238 2.238c-2.571-1.646-5.531-2.513-8.611-2.513-4.274 0-8.292 1.664-11.314 4.686s-4.686 7.040-4.686 11.314c0 3.96 1.43 7.699 4.043 10.631l-3.768 3.769c-0.366 0.366-0.366 0.96 0 1.326 0.169 0.17 0.403 0.275 0.662 0.275 0 0 0.001 0 0.001 0h-0c0.24 0 0.48-0.092 0.663-0.275l3.769-3.768c2.932 2.614 6.671 4.043 10.631 4.043s7.699-1.43 10.631-4.043l3.769 3.768c0.169 0.17 0.403 0.275 0.662 0.275 0 0 0.001 0 0.001 0h-0c0.24 0 0.48-0.092 0.663-0.275 0.366-0.366 0.366-0.959 0-1.326zM27.103 2.673l0.408 1.223c0.095 0.281 0.312 0.497 0.586 0.591l0.007 0.002 1.224 0.408-2.068 2.068-1.668-0.556-0.556-1.668zM20.083 16c0 2.251-1.832 4.083-4.083 4.083s-4.083-1.832-4.083-4.083c0-2.251 1.832-4.083 4.083-4.083 0.001 0 0.003 0 0.004 0 0.793 0 1.533 0.228 2.158 0.621l-0.017-0.010-2.809 2.809c-0.366 0.366-0.366 0.96 0 1.326 0.169 0.17 0.403 0.275 0.661 0.275 0 0 0.001 0 0.001 0h-0c0.24 0 0.48-0.092 0.663-0.275l2.809-2.809c0.384 0.608 0.612 1.349 0.612 2.142 0 0.001 0 0.003 0 0.004v-0zM19.496 11.178c-0.983-0.714-2.191-1.136-3.496-1.136-3.285 0-5.958 2.673-5.958 5.958s2.673 5.958 5.958 5.958c3.285 0 5.959-2.673 5.959-5.958 0-1.305-0.422-2.513-1.137-3.496l2.241-2.241c1.275 1.567 2.041 3.564 2.041 5.737 0 5.020-4.084 9.104-9.104 9.104s-9.104-4.084-9.104-9.104c0-5.020 4.084-9.104 9.104-9.104 2.173 0 4.17 0.766 5.738 2.041zM1.875 16c0-7.789 6.336-14.125 14.125-14.125 2.581 0 5.066 0.689 7.252 2.001-0.141 0.163-0.227 0.378-0.227 0.612 0 0.106 0.018 0.208 0.050 0.303l-0.002-0.007 0.705 2.113-0.709 0.709c-1.911-1.612-4.378-2.585-7.068-2.585-6.054 0-10.979 4.925-10.979 10.979s4.925 10.979 10.979 10.979c6.054 0 10.979-4.925 10.979-10.979 0-2.69-0.973-5.157-2.585-7.068l0.709-0.709 2.113 0.705c0.097 0.032 0.197 0.048 0.296 0.048 0.222 0 0.44-0.080 0.612-0.228 1.312 2.186 2.001 4.671 2.001 7.253 0 7.789-6.336 14.125-14.125 14.125s-14.125-6.336-14.125-14.125z"></path>
</symbol>
<symbol id="telegram" viewBox="0 0 32 32">
<title>telegram</title>
<path fill="#039be5" style="fill: var(--color10, #039be5)" d="M32 16c0 8.837-7.163 16-16 16s-16-7.163-16-16c0-8.837 7.163-16 16-16s16 7.163 16 16z"></path>
<path fill="#fff" style="fill: var(--color1, #fff)" d="M7.321 15.653l15.427-5.948c0.716-0.259 1.341 0.175 1.109 1.257l0.001-0.001-2.627 12.375c-0.195 0.877-0.716 1.091-1.445 0.677l-4-2.948-1.929 1.859c-0.213 0.213-0.393 0.393-0.807 0.393l0.284-4.071 7.413-6.697c0.323-0.284-0.072-0.444-0.497-0.161l-9.161 5.768-3.949-1.232c-0.857-0.272-0.876-0.857 0.181-1.271z"></path>
</symbol>
<symbol id="youtube" viewBox="0 0 32 32">
<title>youtube</title>
<path fill="#d42428" style="fill: var(--color11, #d42428)" d="M32 16c0 8.837-7.163 16-16 16s-16-7.163-16-16c0-8.837 7.163-16 16-16s16 7.163 16 16z"></path>
<path fill="#cc202d" style="fill: var(--color12, #cc202d)" d="M27.313 4.685c6.248 6.249 6.249 16.38 0 22.629s-16.38 6.249-22.629 0l22.629-22.629z"></path>
<path fill="#ba202e" style="fill: var(--color13, #ba202e)" d="M31.678 19.205l-7.919-7.919-9.34 1.063-5.649 8.746 10.556 10.556c6.206-1.313 11.086-6.222 12.352-12.447z"></path>
<path fill="#fff" style="fill: var(--color1, #fff)" d="M24.373 12.912c0-1.341-1.087-2.428-2.427-2.428h-11.387c-1.34 0-2.427 1.087-2.427 2.428v6.512c0 1.341 1.087 2.428 2.427 2.428h11.387c1.341 0 2.427-1.087 2.427-2.428v-6.512h0zM14.628 18.916v-6.116l4.638 3.058-4.638 3.058z"></path>
</symbol>
</defs>
</svg>

