<svg aria-hidden="true" style="position:absolute;width:0;height:0" xmlns="http://www.w3.org/2000/svg" overflow="hidden"><defs><symbol id="arrow-big" viewBox="0 0 93 32"><path fill="var(--color1, #fff)" stroke="var(--color1, #fff)" stroke-miterlimit="10" stroke-width="2.408" d="M0 16.301h92.629M75.871 31.109l16.325-14.784M76.208.867l15.988 15.458"/><path fill="var(--color1, #fff)" stroke="var(--color1, #fff)" stroke-miterlimit="10" stroke-width="1.204" d="M92.629 16.301c0 .838-.916 1.517-2.047 1.517s-2.047-.679-2.047-1.517c0-.838.916-1.517 2.047-1.517s2.047.679 2.047 1.517z"/></symbol><symbol id="arrow-down" viewBox="0 0 32 32"><path d="M31.797 14.118a.697.697 0 00-.984 0L16.001 28.93 1.187 14.118a.696.696 0 00-.984.984l15.305 15.305a.697.697 0 00.984 0l15.305-15.305a.697.697 0 000-.984z"/><path d="M31.797 1.594a.697.697 0 00-.984 0L16.001 16.408 1.187 1.596a.696.696 0 00-.984.984l15.305 15.305a.697.697 0 00.984-.002L31.797 2.578a.697.697 0 000-.984z"/></symbol><symbol id="arrow-small" viewBox="0 0 46 32"><path d="M46.277 14.769L31.483.492a1.622 1.622 0 00-2.338-.001 1.572 1.572 0 000 2.264l11.938 11.618H1.649a1.625 1.625 0 100 3.25h39.385L29.096 29.217a1.636 1.636 0 002.338 2.29L46.277 17.23a1.526 1.526 0 00.004-2.459l-.004-.003z"/></symbol><symbol id="anchor" viewBox="0 0 32 32"><path fill="var(--color1, #fff)" d="M16 28a1 1 0 001-1V7.05l7.276 7.639a1 1 0 001.447-1.38l-8.309-8.724a2.002 2.002 0 00-2.846.017l-8.293 8.707a1 1 0 001.448 1.38l7.276-7.671v19.981a1 1 0 001 1z"/></symbol><symbol id="facebook" viewBox="0 0 32 32"><path fill="var(--color3, #3b5998)" d="M32 16c0 8.837-7.163 16-16 16S0 24.837 0 16 7.163 0 16 0s16 7.163 16 16z"/><path fill="var(--color1, #fff)" d="M20.022 16.626h-2.855v10.459h-4.326V16.626h-2.057V12.95h2.057v-2.379c0-1.701.808-4.365 4.364-4.365l3.204.013v3.568h-2.325c-.381 0-.918.191-.918 1.002v2.163h3.233l-.378 3.672z"/></symbol><symbol id="support" viewBox="0 0 32 32"><path d="M28.771 21.293l2.189-2.189a3.559 3.559 0 00-1.457-5.909l-.025-.007a3.532 3.532 0 00.688-2.103c0-.95-.37-1.842-1.041-2.514a3.528 3.528 0 00-2.633-1.039 3.55 3.55 0 00-3.669-3.669l.002-.119c0-.95-.37-1.842-1.041-2.514a3.559 3.559 0 00-5.027 0L16 1.987l-.757-.757C14.572.558 13.679.188 12.729.188s-1.842.37-2.513 1.041a3.548 3.548 0 00-1.037 2.633 2.167 2.167 0 00-.119-.003h-.001c-.949 0-1.842.37-2.514 1.041a3.543 3.543 0 00-1.036 2.633c-.04-.001-.08-.003-.121-.003-.949 0-1.842.37-2.513 1.041s-1.042 1.564-1.042 2.514c0 .767.241 1.496.688 2.102a3.559 3.559 0 00-1.491 5.908l.01.011 2.192 2.192.009.01c.127.127.264.245.41.352l.01.007-.648.648c-.631.631-.952 1.49-.904 2.419a3.65 3.65 0 001.081 2.394l3.708 3.709c.688.688 1.591 1.032 2.495 1.032s1.807-.344 2.495-1.032l1.724-1.724a11.364 11.364 0 004.777 0l1.723 1.723c.688.688 1.591 1.032 2.495 1.032s1.807-.344 2.495-1.032l3.709-3.708c1.375-1.375 1.532-3.457.348-4.641l-.79-.79.39-.39.013-.013zM11.573 2.585c.309-.309.72-.479 1.157-.479s.848.17 1.157.479l2.936 2.936a1.638 1.638 0 01-1.157 2.793c-.437 0-.848-.17-1.157-.479l-2.936-2.936-.007-.007a1.639 1.639 0 01.007-2.308zM7.898 8.566a1.639 1.639 0 01.004-2.31c.309-.309.72-.479 1.158-.479s.847.17 1.156.479h.001l.003.003 2.933 2.933.006.006.729.729c.309.309.479.72.479 1.157s-.17.848-.479 1.157c-.309.309-.72.479-1.157.479s-.848-.17-1.157-.479l-.011-.011-.719-.72-.003-.003L7.9 8.566zM4.232 9.927c.309-.309.72-.479 1.157-.479s.848.17 1.157.479l2.94 2.94a1.639 1.639 0 01-.003 2.311c-.309.309-.72.479-1.157.479s-.848-.17-1.157-.479l-.011-.011-2.925-2.925c-.309-.309-.479-.72-.479-1.157s.17-.848.48-1.157zm-1.826 7.829l-.011-.011a1.639 1.639 0 01.001-2.313c.309-.309.72-.479 1.157-.479s.848.17 1.157.479l2.202 2.202a1.638 1.638 0 01-1.157 2.793 1.68 1.68 0 01-.247-.018l.009.001-.018-.003a1.626 1.626 0 01-.895-.452l-.008-.008zm11.153 9.371l-.024-.005a1.137 1.137 0 00-.052-.012l-.006-.001-.043-.006-.044-.005h-.004a.745.745 0 00-.05-.002h-.041a.489.489 0 00-.054.003l-.039.003a.81.81 0 00-.052.008l-.046.009.005-.001a.405.405 0 00-.047.012l-.045.013-.041.014-.047.019a.9.9 0 00-.088.044l.005-.003-.037.022-.041.026-.04.03-.033.025c-.016.013-.03.027-.045.041a.129.129 0 00-.017.016l-2.102 2.102a1.61 1.61 0 01-2.276 0l-3.708-3.708a1.736 1.736 0 01-.521-1.135c-.019-.38.103-.723.345-.964l1.325-1.325.061.002c.949 0 1.842-.37 2.513-1.041a3.56 3.56 0 00.796-3.808 3.539 3.539 0 001.774-.963 3.53 3.53 0 001.001-1.988l.002-.019c.266.071.572.112.887.112h.001c.949 0 1.842-.37 2.513-1.041s1.041-1.564 1.041-2.514c0-.303-.038-.6-.111-.886a3.525 3.525 0 002.006-1.005 3.559 3.559 0 000-5.027l-.823-.823.757-.757a1.638 1.638 0 012.793 1.157c0 .437-.17.848-.479 1.157a.952.952 0 00-.281.677v.001a.959.959 0 001.638.678c.638-.638 1.676-.638 2.314 0s.638 1.676 0 2.314a.952.952 0 00-.281.677v.003a.959.959 0 001.638.677c.309-.309.72-.479 1.157-.479s.848.17 1.157.479c.309.309.48.72.48 1.157 0 .431-.166.837-.467 1.144l-.013.013-1.376 1.376a.96.96 0 00-.078 1.269l.049.063a.96.96 0 001.247.234 1.636 1.636 0 011.993 2.563l-6.941 6.941a9.461 9.461 0 01-9.104 2.44zm14.243-3.285c.421.421.258 1.322-.348 1.928l-3.709 3.708a1.61 1.61 0 01-2.276 0l-1.02-1.02a11.418 11.418 0 003.571-2.413l2.992-2.992z"/></symbol><symbol id="aim" viewBox="0 0 32 32"><path fill="var(--color5, #fcae26)" d="M16 10.571A5.429 5.429 0 1021.429 16 5.429 5.429 0 0016 10.571zm0 8.533A3.104 3.104 0 1119.104 16 3.104 3.104 0 0116 19.104z"/><path fill="var(--color5, #fcae26)" d="M16 0C7.163 0 0 7.163 0 16s7.163 16 16 16 16-7.163 16-16S24.837 0 16 0zm8.533 16.779h-1.6c-.37 3.239-2.915 5.785-6.123 6.152l-.032.003v1.6h-1.557v-1.6c-3.239-.37-5.785-2.915-6.152-6.123l-.003-.032h-1.6v-1.557h1.6c.37-3.239 2.915-5.785 6.123-6.152l.032-.003v-1.6h1.557v1.6c3.239.37 5.785 2.915 6.152 6.123l.003.032h1.6z"/></symbol><symbol id="circle" viewBox="0 0 32 32"><path fill="var(--color5, #fcae26)" d="M16 0C7.163 0 0 7.163 0 16s7.163 16 16 16 16-7.163 16-16S24.837 0 16 0zm8.064 15.029h-6.197a2.147 2.147 0 00-1.053-.965l-.014-.005V7.915c3.795.389 6.795 3.339 7.26 7.075l.004.04zM7.872 16a8.13 8.13 0 017.316-8.083l.034-.003v6.123a2.133 2.133 0 00-.014 3.92l.014.005v6.123c-4.139-.41-7.346-3.873-7.349-8.085zm8.96 8.085v-6.144a2.149 2.149 0 001.061-1.053l.005-.013h6.187c-.429 3.812-3.436 6.804-7.218 7.208l-.036.003z"/></symbol><symbol id="grid" viewBox="0 0 32 32"><path fill="var(--color5, #fcae26)" d="M16 0C7.163 0 0 7.163 0 16s7.163 16 16 16 16-7.163 16-16S24.837 0 16 0zm-1.28 23.467H8.533V17.28h6.187zm7.733-6.187v6.187h-6.187V17.28h2.827l-4.373-4.373v2.827H8.533V9.601h6.187v3.307l4.373-4.373 4.373 4.373-4.373 4.373z"/></symbol><symbol id="internet" viewBox="0 0 32 32"><path d="M16 0C7.164 0 0 7.164 0 16s7.164 16 16 16 16-7.164 16-16C31.99 7.168 24.832.01 16 0zm13.838 21.605l-4.55.785c.496-1.747.799-3.758.837-5.835v-.022h4.795a14.794 14.794 0 01-1.119 5.17l.036-.098zM1.08 16.533h4.795c.038 2.099.342 4.111.877 6.025l-.04-.168-4.55-.785c-.625-1.495-1.017-3.229-1.082-5.046l-.001-.026zm1.082-6.138l4.55-.785c-.496 1.746-.799 3.758-.837 5.835v.022H1.08a14.794 14.794 0 011.119-5.17l-.036.098zm14.371-1.832c2.039.027 4.014.216 5.938.554l-.221-.032 1.883.325c.551 1.805.886 3.884.925 6.036v.021h-8.525zm5.9-.529c-1.758-.316-3.796-.511-5.874-.537h-.025v-6.4c3.058.294 5.714 3.093 7.219 7.167zm-6.966-.537a38 38 0 00-6.126.571l.227-.033-1.32.228c1.505-4.075 4.161-6.876 7.219-7.168zM9.75 9.085c1.703-.307 3.678-.495 5.692-.522h.025v6.903H6.942c.039-2.172.374-4.251.967-6.219l-.042.162zm-2.809 7.448h8.525v6.903a37.065 37.065 0 01-5.938-.554l.221.032-1.883-.325c-.551-1.805-.886-3.884-.925-6.036v-.021zm2.626 7.433c1.757.316 3.794.512 5.873.54h.027v6.4c-3.058-.294-5.714-3.094-7.219-7.168zm6.966.54a38.218 38.218 0 006.127-.574l-.228.033 1.32-.228c-1.505 4.075-4.161 6.876-7.219 7.168zm5.717-1.591c-1.703.307-3.678.495-5.692.522h-.025v-6.903h8.525a22.918 22.918 0 01-.967 6.219l.042-.162zm3.875-7.448a23.926 23.926 0 00-.877-6.025l.04.168 4.55.785c.625 1.495 1.017 3.229 1.082 5.046l.001.026zm3.173-6.248l-4.362-.753c-.827-2.645-2.297-4.889-4.23-6.628l-.013-.012c3.772 1.284 6.798 3.917 8.566 7.31l.039.083zM11.307 1.826a14.727 14.727 0 00-4.215 6.536l-.028.104-4.362.753c1.807-3.476 4.833-6.109 8.499-7.362l.106-.031zM2.702 22.781l4.362.753c.827 2.645 2.297 4.889 4.23 6.628l.013.012c-3.772-1.284-6.798-3.917-8.566-7.31l-.039-.083zm17.991 7.392a14.735 14.735 0 004.215-6.536l.028-.104 4.362-.753c-1.807 3.476-4.833 6.108-8.499 7.361l-.106.031z"/></symbol><symbol id="lamp" viewBox="0 0 32 32"><path d="M30.847.292a.625.625 0 10-.152.87l-.002.001a.626.626 0 00.153-.871zm-.154 19.859a.625.625 0 00-.87.152l-.001.002a.624.624 0 10.871-.154zM2.023.139a.625.625 0 10.153.872l.001-.002a.624.624 0 00-.154-.87zm.154 20.166a.625.625 0 00-.873-.153l.002-.001a.626.626 0 10.871.154zM23.085 2.708a10.545 10.545 0 00-3.76-2.176A10.646 10.646 0 0014.79.068c-2.263.251-4.438 1.273-6.123 2.879-1.688 1.609-2.81 3.732-3.16 5.98-.31 1.99-.069 4 .697 5.814a10.668 10.668 0 003.43 4.381c.464.348.741.903.741 1.483v5.718c0 .86.566 1.591 1.346 1.838a4.344 4.344 0 001.248 2.559 4.348 4.348 0 003.093 1.281 4.38 4.38 0 004.347-3.888 1.943 1.943 0 001.215-1.79v-5.718c0-.581.275-1.134.736-1.478a10.738 10.738 0 003.101-3.67 10.476 10.476 0 001.163-4.83c0-3.017-1.29-5.903-3.54-7.917zM16.063 30.75a3.108 3.108 0 01-2.21-.915A3.11 3.11 0 0113 28.25h6.125a3.13 3.13 0 01-3.062 2.5zm4.312-4.428a.68.68 0 01-.677.678h-7.395a.679.679 0 01-.678-.678v-.759h8.75v.759zm0-2.009h-8.75v-1.438h8.75v1.438zM16 13.534h.001a4.16 4.16 0 001.898-.456l-.023.011v8.537h-3.75v-8.537a4.108 4.108 0 001.874.445h.001zm-1.724-1.813L16 8.273l1.724 3.448a2.917 2.917 0 01-3.448 0zm7.336 6.404a3.109 3.109 0 00-1.237 2.479v1.021h-1.25v-9.749c0-.023-.002-.045-.004-.068l-.003-.019-.009-.052.001.004-.005-.021a.665.665 0 00-.015-.051l.001.004-.006-.018a.557.557 0 00-.023-.053l.002.004-.004-.01-2.5-5a.627.627 0 00-1.116-.003l-.002.004-2.5 5-.004.01a.44.44 0 00-.021.05l-.006.018a.543.543 0 00-.013.042l-.001.004-.005.021a.373.373 0 00-.008.045v.003l-.003.019c-.002.023-.004.045-.004.068v9.749h-1.25v-1.021c0-.972-.464-1.9-1.241-2.483-2.785-2.087-4.18-5.536-3.641-9.002.633-4.069 4.075-7.353 8.185-7.808 2.71-.3 5.312.527 7.324 2.329a9.389 9.389 0 013.123 6.986c0 2.976-1.372 5.709-3.763 7.499z"/><path d="M21.418 4.57a.625.625 0 10-.834.932 6.888 6.888 0 012.291 5.124.625.625 0 001.25 0 8.141 8.141 0 00-2.707-6.055zM3.5 10H.625a.625.625 0 000 1.25H3.5a.625.625 0 000-1.25zm27.875 0H28.5a.625.625 0 000 1.25h2.875a.625.625 0 000-1.25zM6.273 17.437a.624.624 0 00-.87-.154l-2.048 1.434a.624.624 0 00.358 1.137h.001a.624.624 0 00.358-.113l2.048-1.434a.624.624 0 00.154-.87zM28.799 1.663a.624.624 0 00-.87-.154l-2.048 1.434a.624.624 0 00.358 1.137h.001a.624.624 0 00.358-.113l2.048-1.434a.624.624 0 00.154-.87zM6.119 2.944L4.071 1.51a.624.624 0 10-.716 1.024l2.048 1.434c.1.071.224.113.358.113h.001a.623.623 0 00.51-.265l.001-.002a.624.624 0 00-.154-.87zm22.527 15.773l-2.048-1.434a.624.624 0 10-.716 1.024l2.048 1.434c.1.071.224.113.358.113h.001a.623.623 0 00.51-.265l.001-.002a.624.624 0 00-.154-.87z"/></symbol><symbol id="money" viewBox="0 0 32 32"><path d="M21.372 20.522c-.758 0-1.375-.534-1.375-1.19s.617-1.19 1.375-1.19 1.375.534 1.375 1.19a.625.625 0 001.25 0c0-1.145-.853-2.108-2-2.37v-.325a.625.625 0 00-1.25 0v.325c-1.147.261-2 1.224-2 2.37 0 1.345 1.178 2.44 2.625 2.44.758 0 1.375.534 1.375 1.19s-.617 1.19-1.375 1.19-1.375-.534-1.375-1.19a.625.625 0 00-1.25 0c0 1.145.853 2.108 2 2.37v.27a.625.625 0 001.25 0v-.27c1.147-.261 2-1.224 2-2.37 0-1.346-1.178-2.44-2.625-2.44zm6.846-3.717a8.202 8.202 0 00-3.278-2.923l-.048-.021a.624.624 0 10-.541 1.127 6.917 6.917 0 013.9 6.2 6.888 6.888 0 01-.801 3.224.624.624 0 001.102.59l.002-.003a8.141 8.141 0 00-.334-8.195zm-5.863-3.742h-.042a.625.625 0 000 1.25h.039a.625.625 0 00.003-1.25zM18.4 27.388a6.917 6.917 0 01-3.9-6.2c0-1.124.277-2.239.801-3.224a.624.624 0 10-1.103-.587 8.141 8.141 0 00.334 8.195 8.209 8.209 0 003.278 2.923l.048.021a.625.625 0 00.545-1.125l-.004-.002zm2.038.675h-.036a.625.625 0 10-.006 1.25h.042a.625.625 0 000-1.25z"/><path d="M24.213 10.948a2.851 2.851 0 00-.284-.52l.006.01h1.627c1.585 0 2.875-1.29 2.875-2.875s-1.29-2.875-2.875-2.875h-5.005a2.834 2.834 0 00.505-1.622v-.003A2.879 2.879 0 0018.187.188H2.875C1.29.188 0 1.478 0 3.063s1.29 2.875 2.875 2.875H7.88c-.318.463-.505 1.022-.505 1.625s.187 1.162.505 1.625H6.25a2.872 2.872 0 00-1.787 5.125 2.87 2.87 0 000 4.5 2.87 2.87 0 000 4.5 2.87 2.87 0 00-1.088 2.25 2.879 2.879 0 002.875 2.875h7.366a10.598 10.598 0 007.759 3.375C27.234 31.813 32 27.047 32 21.188c0-4.876-3.302-8.995-7.787-10.24zm1.349-5.01c.896 0 1.625.729 1.625 1.625s-.729 1.625-1.625 1.625H10.25c-.896 0-1.625-.729-1.625-1.625s.729-1.625 1.625-1.625h15.312zM2.875 4.688c-.896 0-1.625-.729-1.625-1.625s.729-1.625 1.625-1.625h15.312c.896 0 1.625.729 1.625 1.625s-.729 1.625-1.625 1.625H2.875zm3.375 5.749h15.312c.252 0 .493.059.709.163a10.595 10.595 0 00-8.415 3.087H6.25c-.896 0-1.625-.729-1.625-1.625s.729-1.625 1.625-1.625zm0 4.5h6.538a10.569 10.569 0 00-1.606 3.25H6.25c-.896 0-1.625-.729-1.625-1.625s.729-1.625 1.625-1.625zm0 4.5h4.645a10.358 10.358 0 00-.145 1.75c0 .509.037 1.01.106 1.5H6.25c-.896 0-1.625-.729-1.625-1.625s.729-1.625 1.625-1.625zm0 7.75c-.896 0-1.625-.729-1.625-1.625s.729-1.625 1.625-1.625h4.862a10.597 10.597 0 001.522 3.285l-.023-.035H6.25zm15.125 3.376c-5.169 0-9.375-4.206-9.375-9.375s4.206-9.375 9.375-9.375 9.375 4.206 9.375 9.375-4.206 9.375-9.375 9.375z"/></symbol><symbol id="peace" viewBox="0 0 32 32"><path d="M27.331 18.133v-.028a3.452 3.452 0 00-3.448-3.448h-.941l4.127-9.953c.727-1.756-.11-3.777-1.866-4.505s-3.778.11-4.505 1.866l-2.579 6.226-2.579-6.226C14.812.309 12.791-.528 11.035.199S8.442 2.948 9.169 4.704l2.24 5.409a3.494 3.494 0 00-.761.609l-.002.002a3.436 3.436 0 00-2.51-1.088 3.452 3.452 0 00-3.448 3.448v7.531c0 6.243 5.079 11.322 11.322 11.322s11.322-5.079 11.322-11.322zM11.752 1.932a1.575 1.575 0 012.055.851l3.445 8.317a.939.939 0 001.73.006l.002-.006 3.445-8.317c.332-.801 1.254-1.183 2.055-.852s1.183 1.254.851 2.055l-4.424 10.67h-4.307v-1.573c0-1.873-1.501-3.4-3.363-3.446L10.9 3.986a1.575 1.575 0 01.851-2.055zm1.404 12.726h-.002a3.41 3.41 0 00-1.589.39l.019-.009v-1.955c0-.867.706-1.573 1.573-1.573s1.573.706 1.573 1.573v1.573zm-6.594-1.574c0-.867.706-1.573 1.573-1.573s1.573.706 1.573 1.573v5.021c0 .867-.706 1.573-1.573 1.573s-1.573-.706-1.573-1.573zm9.447 16.979c-5.019 0-9.136-3.935-9.429-8.882.452.235.987.372 1.553.372h.002a3.44 3.44 0 002.511-1.088 3.437 3.437 0 002.511 1.088h8.216a.938.938 0 000-1.876h-8.216c-.867 0-1.573-.706-1.573-1.573s.706-1.573 1.573-1.573h10.726c.864 0 1.567.7 1.573 1.562v2.521c0 5.209-4.238 9.447-9.447 9.447z"/></symbol><symbol id="resume" viewBox="0 0 32 32"><path d="M27.996 6.477a.745.745 0 00-.218-.522L22.042.219A.745.745 0 0021.514 0H5.58c-.87 0-1.577.708-1.577 1.577v28.845c0 .87.707 1.577 1.577 1.577h20.84c.87 0 1.577-.707 1.577-1.577V6.484l-.002-.008zm-5.734-3.919l3.177 3.177h-3.098a.079.079 0 01-.079-.079V2.558zm4.237 27.865a.08.08 0 01-.079.079H5.58a.08.08 0 01-.079-.079V1.578a.08.08 0 01.079-.079h15.184v4.158c0 .87.708 1.577 1.577 1.577h4.158v23.189z"/><path d="M22.631 10.251H9.37a.749.749 0 100 1.498h13.261a.749.749 0 100-1.498zm0 4.521H9.37a.749.749 0 100 1.498h13.261a.749.749 0 100-1.498zm0 4.521H9.37a.749.749 0 100 1.498h13.261a.749.749 0 100-1.498zM16 23.814H9.37a.749.749 0 100 1.498H16a.749.749 0 100-1.498z"/></symbol><symbol id="target" viewBox="0 0 32 32"><path d="M31.725 30.4l-3.768-3.769A15.884 15.884 0 0032 16c0-3.08-.867-6.04-2.513-8.611l2.238-2.238a.934.934 0 00.249-.885l.001.006a.943.943 0 00-.609-.672l-.007-.002-2.218-.74L28.402.64a.944.944 0 00-.668-.615l-.006-.001a.934.934 0 00-.878.25l-2.238 2.238a15.893 15.893 0 00-8.611-2.513c-4.274 0-8.292 1.664-11.314 4.686S.001 11.725.001 15.999c0 3.96 1.43 7.699 4.043 10.631L.276 30.399A.938.938 0 00.938 32h.001c.24 0 .48-.092.663-.275l3.769-3.768C8.303 30.571 12.042 32 16.002 32s7.699-1.43 10.631-4.043l3.769 3.768a.93.93 0 00.662.275h.001a.938.938 0 00.663-1.601zM27.103 2.673l.408 1.223a.94.94 0 00.586.591l.007.002 1.224.408-2.068 2.068-1.668-.556-.556-1.668zM20.083 16c0 2.251-1.832 4.083-4.083 4.083S11.917 18.251 11.917 16A4.088 4.088 0 0116 11.917h.004c.793 0 1.533.228 2.158.621l-.017-.01-2.809 2.809a.938.938 0 00.661 1.601h.001c.24 0 .48-.092.663-.275l2.809-2.809c.384.608.612 1.349.612 2.142V16zm-.587-4.822A5.93 5.93 0 0016 10.042c-3.285 0-5.958 2.673-5.958 5.958s2.673 5.958 5.958 5.958A5.966 5.966 0 0021.959 16a5.924 5.924 0 00-1.137-3.496l2.241-2.241A9.062 9.062 0 0125.104 16c0 5.02-4.084 9.104-9.104 9.104S6.896 21.02 6.896 16 10.98 6.896 16 6.896c2.173 0 4.17.766 5.738 2.041zM1.875 16C1.875 8.211 8.211 1.875 16 1.875c2.581 0 5.066.689 7.252 2.001a.934.934 0 00-.177.915l-.002-.007.705 2.113-.709.709a10.929 10.929 0 00-7.068-2.585C9.947 5.021 5.022 9.946 5.022 16s4.925 10.979 10.979 10.979c6.054 0 10.979-4.925 10.979-10.979 0-2.69-.973-5.157-2.585-7.068l.709-.709 2.113.705a.94.94 0 00.908-.18 14.03 14.03 0 012.001 7.253c0 7.789-6.336 14.125-14.125 14.125S1.876 23.79 1.876 16.001z"/></symbol><symbol id="telegram" viewBox="0 0 32 32"><path fill="var(--color10, #039be5)" d="M32 16c0 8.837-7.163 16-16 16S0 24.837 0 16 7.163 0 16 0s16 7.163 16 16z"/><path fill="var(--color1, #fff)" d="M7.321 15.653l15.427-5.948c.716-.259 1.341.175 1.109 1.257l.001-.001-2.627 12.375c-.195.877-.716 1.091-1.445.677l-4-2.948-1.929 1.859c-.213.213-.393.393-.807.393l.284-4.071 7.413-6.697c.323-.284-.072-.444-.497-.161l-9.161 5.768-3.949-1.232c-.857-.272-.876-.857.181-1.271z"/></symbol><symbol id="youtube" viewBox="0 0 32 32"><path fill="var(--color11, #d42428)" d="M32 16c0 8.837-7.163 16-16 16S0 24.837 0 16 7.163 0 16 0s16 7.163 16 16z"/><path fill="var(--color12, #cc202d)" d="M27.313 4.685c6.248 6.249 6.249 16.38 0 22.629s-16.38 6.249-22.629 0L27.313 4.685z"/><path fill="var(--color13, #ba202e)" d="M31.678 19.205l-7.919-7.919-9.34 1.063-5.649 8.746 10.556 10.556a16.02 16.02 0 0012.352-12.447z"/><path fill="var(--color1, #fff)" d="M24.373 12.912a2.428 2.428 0 00-2.427-2.428H10.559a2.428 2.428 0 00-2.427 2.428v6.512a2.428 2.428 0 002.427 2.428h11.387a2.427 2.427 0 002.427-2.428v-6.512zm-9.745 6.004V12.8l4.638 3.058-4.638 3.058z"/></symbol></defs></svg>